HIERARCHY
ROOT Hips
{
	OFFSET 0.000000 0.000000 0.000000
	CHANNELS 6 Xposition Yposition Zposition Zrotation Yrotation Xrotation 
	JOINT LowerBack
	{
		OFFSET 0.000000 0.000000 0.000000
		CHANNELS 3 Zrotation Yrotation Xrotation
		JOINT Spine
		{
			OFFSET 0.028270 2.035590 -0.193380
			CHANNELS 3 Zrotation Yrotation Xrotation
			JOINT Spine1
			{
				OFFSET 0.056720 2.048850 -0.042750
				CHANNELS 3 Zrotation Yrotation Xrotation
				JOINT Neck
				{
					OFFSET 0.000000 0.000000 0.000000
					CHANNELS 3 Zrotation Yrotation Xrotation
					JOINT Neck1
					{
						OFFSET -0.054170 1.746240 0.172020
						CHANNELS 3 Zrotation Yrotation Xrotation
						JOINT Head
						{
							OFFSET 0.104070 1.761360 -0.123970
							CHANNELS 3 Zrotation Yrotation Xrotation
							End Site
							{
								OFFSET 0.000000 0.000000 0.000000
							}
						}
					}
				}
				JOINT LeftShoulder
				{
					OFFSET 0.000000 0.000000 0.000000
					CHANNELS 3 Zrotation Yrotation Xrotation
					JOINT LeftArm
					{
						OFFSET 3.362410 1.200890 -0.311210
						CHANNELS 3 Zrotation Yrotation Xrotation
						JOINT LeftForeArm
						{
							OFFSET 4.983000 -0.000000 -0.000000
							CHANNELS 3 Zrotation Yrotation Xrotation
							JOINT LeftHand
							{
								OFFSET 3.483560 -0.000000 -0.000000
								CHANNELS 3 Zrotation Yrotation Xrotation
								JOINT LeftFingerBase
								{
									OFFSET 0.000000 0.000000 0.000000
									CHANNELS 3 Zrotation Yrotation Xrotation
									JOINT LeftHandIndex1
									{
										OFFSET 0.715260 -0.000000 -0.000000
										CHANNELS 3 Zrotation Yrotation Xrotation
										End Site
										{
											OFFSET 0.000000 0.000000 0.000000
										}
									}
								}
								JOINT LThumb
								{
									OFFSET 0.000000 0.000000 0.000000
									CHANNELS 3 Zrotation Yrotation Xrotation
									End Site
									{
										OFFSET 0.000000 0.000000 0.000000
									}
								}
							}
						}
					}
				}
				JOINT RightShoulder
				{
					OFFSET 0.000000 0.000000 0.000000
					CHANNELS 3 Zrotation Yrotation Xrotation
					JOINT RightArm
					{
						OFFSET -3.136600 1.374050 -0.404650
						CHANNELS 3 Zrotation Yrotation Xrotation
						JOINT RightForeArm
						{
							OFFSET -5.241900 -0.000000 -0.000000
							CHANNELS 3 Zrotation Yrotation Xrotation
							JOINT RightHand
							{
								OFFSET -3.444170 -0.000000 -0.000000
								CHANNELS 3 Zrotation Yrotation Xrotation
								JOINT RightFingerBase
								{
									OFFSET 0.000000 0.000000 0.000000
									CHANNELS 3 Zrotation Yrotation Xrotation
									JOINT RightHandIndex1
									{
										OFFSET -0.622530 -0.000000 -0.000000
										CHANNELS 3 Zrotation Yrotation Xrotation
										End Site
										{
											OFFSET 0.000000 0.000000 0.000000
										}
									}
								}
								JOINT RThumb
								{
									OFFSET 0.000000 0.000000 0.000000
									CHANNELS 3 Zrotation Yrotation Xrotation
									End Site
									{
										OFFSET 0.000000 0.000000 0.000000
									}
								}
							}
						}
					}
				}
			}
		}
	}
}
}
MOTION
Frames: 14
Frame Time: 0.008333
-8.279947 17.015508 -0.847492 11.150860 80.856287 42.355137 -5.327416 2.455482 6.349513 -1.412321 2.892276 -1.989899 -3.003011 2.905288 -0.901987 2.604739 -5.821159 -4.661693 0.367424 -0.005198 0.534782 0.000000 0.000000 0.000000 4.450518 20.909808 0.604113 -56.048814 44.974660 32.996023 -179.596517 -80.689977 -179.994919 -3.219358 -1.347975 0.041724 0.051780 0.111363 0.000000 0.000000 0.000000 0.000000 0.000000 0.000000 0.000000 -11.256483 1.312251 -2.526415 68.353231 14.357824 24.579780 179.572914 75.658265 179.986647 -1.916288 7.224896 -0.131548 0.028014 -0.553971 -0.000000 0.000000 0.000000 0.000000 0.000000 0.000000 0.000000 
-8.031839 17.007261 -0.838229 10.151179 80.518590 41.322678 -5.650264 2.442955 6.364605 -1.481783 2.894514 -1.998605 -3.035006 2.909279 -0.909280 2.603165 -5.884470 -4.816227 0.338135 -0.004404 0.491729 0.000000 0.000000 0.000000 4.012031 21.064198 0.656296 -57.084008 44.803810 31.234308 -179.570013 -80.228250 -179.994844 -2.995778 -1.406766 0.040570 0.047756 0.118468 0.000000 0.000000 0.000000 0.000000 0.000000 0.000000 0.000000 -11.194614 1.315774 -2.514842 68.853409 13.861228 24.899876 179.576820 75.574713 179.987195 -1.808285 7.187614 -0.123253 0.024160 -0.553239 -0.000000 0.000000 0.000000 0.000000 0.000000 0.000000 0.000000 
-7.785912 16.987776 -0.829752 9.286767 80.201157 40.439079 -5.953274 2.416673 6.391332 -1.548039 2.882368 -2.005336 -3.076152 2.898728 -0.920957 2.630209 -5.943704 -4.983423 0.294699 -0.004370 0.444278 0.000000 0.000000 0.000000 3.500555 21.160174 0.719647 -58.206254 44.486264 29.345518 -179.546651 -79.804136 -179.994938 -2.659153 -1.412417 0.036334 0.041280 0.125310 0.000000 0.000000 0.000000 0.000000 0.000000 0.000000 0.000000 -11.042964 1.325573 -2.486936 69.335466 13.343969 25.181070 179.577989 75.510372 179.987891 -1.678819 7.181235 -0.114154 0.019876 -0.553306 -0.000000 0.000000 0.000000 0.000000 0.000000 0.000000 0.000000 
-7.542263 16.956827 -0.822124 8.535772 79.911109 39.689697 -6.233883 2.376140 6.421472 -1.610450 2.855150 -2.011300 -3.125880 2.872847 -0.935747 2.688124 -5.993457 -5.161437 0.237380 -0.005129 0.392985 0.000000 0.000000 0.000000 2.929690 21.203162 0.793070 -59.394067 44.010276 27.364573 -179.526771 -79.415968 -179.995254 -2.209070 -1.372995 0.029617 0.032367 0.132022 0.000000 0.000000 0.000000 0.000000 0.000000 0.000000 0.000000 -10.800701 1.347021 -2.443096 69.798620 12.798146 25.411433 179.576425 75.479263 179.988845 -1.509671 7.214008 -0.102855 0.014688 -0.554220 -0.000000 0.000000 0.000000 0.000000 0.000000 0.000000 0.000000 
-7.301029 16.914229 -0.815165 7.901325 79.653306 39.080887 -6.495023 2.320228 6.450047 -1.669349 2.811714 -2.016988 -3.183387 2.830458 -0.952114 2.778635 -6.027175 -5.348791 0.166653 -0.006686 0.338266 0.000000 0.000000 0.000000 2.319255 21.203456 0.876006 -60.621721 43.362318 25.334769 -179.510642 -79.062952 -179.995844 -1.652550 -1.298449 0.021318 0.021195 0.138760 0.000000 0.000000 0.000000 0.000000 0.000000 0.000000 0.000000 -10.468418 1.386327 -2.384914 70.246360 12.215738 25.572951 179.572768 75.498709 179.990129 -1.288217 7.290077 -0.088156 0.008228 -0.555937 -0.000000 0.000000 0.000000 0.000000 0.000000 0.000000 0.000000 
-7.062351 16.859902 -0.808680 7.381070 79.430508 38.609313 -6.739823 2.248402 6.475167 -1.724951 2.751570 -2.022468 -3.247722 2.771088 -0.969226 2.901355 -6.037694 -5.544477 0.083240 -0.009022 0.280412 0.000000 0.000000 0.000000 1.688005 21.174303 0.967840 -61.859961 42.530322 23.303647 -179.498286 -78.744308 -179.996750 -1.003881 -1.198828 0.012334 0.008075 0.145674 0.000000 0.000000 0.000000 0.000000 0.000000 0.000000 0.000000 -10.050509 1.450647 -2.314977 70.686661 11.588594 25.642611 179.568330 75.586552 179.991751 -1.010343 7.408092 -0.069659 0.000309 -0.558310 -0.000000 0.000000 0.000000 0.000000 0.000000 0.000000 0.000000 
-6.826325 16.793857 -0.802427 6.953658 79.241834 38.248392 -6.969041 2.161355 6.499753 -1.776861 2.675426 -2.027000 -3.317680 2.695530 -0.987109 3.052456 -6.018041 -5.747544 -0.011912 -0.012092 0.219659 0.000000 0.000000 0.000000 1.050470 21.130631 1.067371 -63.075481 41.504448 21.321415 -179.489421 -78.459444 -179.997997 -0.282686 -1.082813 0.003562 -0.006614 0.152888 0.000000 0.000000 0.000000 0.000000 0.000000 0.000000 0.000000 -9.555852 1.547236 -2.236495 71.131434 10.908571 25.594729 179.565103 75.762842 179.993652 -0.682767 7.560948 -0.047164 -0.008985 -0.561046 -0.000000 0.000000 0.000000 0.000000 0.000000 0.000000 0.000000 
-6.593135 16.716269 -0.796213 6.582625 79.083125 37.952311 -7.180500 2.061509 6.530511 -1.824205 2.585602 -2.029467 -3.392171 2.606246 -1.007632 3.224844 -5.961409 -5.956525 -0.117881 -0.015860 0.156358 0.000000 0.000000 0.000000 0.412668 21.084232 1.172556 -64.234161 40.279808 19.434844 -179.483388 -78.207161 -179.999594 0.488916 -0.955450 -0.004300 -0.022497 0.160453 0.000000 0.000000 0.000000 0.000000 0.000000 0.000000 0.000000 -8.996839 1.683766 -2.152589 71.595224 10.166592 25.401732 179.565516 76.046859 179.995698 -0.323313 7.735858 -0.021370 -0.019285 -0.563735 -0.000000 0.000000 0.000000 0.000000 0.000000 0.000000 0.000000 
-6.363059 16.627691 -0.789176 6.332965 78.947607 37.772061 -7.391947 1.949018 6.577242 -1.870719 2.482567 -2.027254 -3.470745 2.503983 -1.029881 3.416002 -5.866808 -6.171522 -0.234227 -0.020274 0.090178 0.000000 0.000000 0.000000 -0.202811 21.049092 1.282949 -65.309437 38.835622 17.694121 -179.480112 -78.001692 179.998474 1.285957 -0.814418 -0.010556 -0.039139 0.168292 0.000000 0.000000 0.000000 0.000000 0.000000 0.000000 0.000000 -8.376640 1.860046 -2.066280 72.094689 9.362759 25.040068 179.572125 76.456639 179.997676 0.036463 7.916335 0.005625 -0.029861 -0.565968 -0.000000 0.000000 0.000000 0.000000 0.000000 0.000000 0.000000 
-6.136231 16.528856 -0.781663 6.089272 78.825517 37.582489 -7.584124 1.831638 6.648888 -1.912533 2.373321 -2.020062 -3.552664 2.395900 -1.060909 3.610406 -5.728029 -6.387381 -0.360239 -0.025378 0.022526 0.000000 0.000000 0.000000 -0.820673 21.018823 1.393286 -66.266982 37.186727 16.123723 -179.477798 -77.835185 179.996203 2.089122 -0.656909 -0.014608 -0.056361 0.176308 0.000000 0.000000 0.000000 0.000000 0.000000 0.000000 0.000000 -7.715635 2.083993 -1.978270 72.644087 8.485878 24.486726 179.587160 77.007985 179.999354 0.360541 8.082343 0.031022 -0.039851 -0.567179 0.000000 0.000000 0.000000 0.000000 0.000000 0.000000 0.000000 
-5.913009 16.420960 -0.772826 5.927621 78.709913 37.446943 -7.773840 1.710573 6.755816 -1.953748 2.259178 -2.004738 -3.637872 2.283609 -1.098185 3.804879 -5.553701 -6.603714 -0.495855 -0.031140 -0.046953 0.000000 0.000000 0.000000 -1.425133 20.998873 1.501868 -67.090441 35.305321 14.760952 -179.476442 -77.735265 179.993635 2.877781 -0.468107 -0.015659 -0.073894 0.184216 0.000000 0.000000 0.000000 0.000000 0.000000 0.000000 0.000000 -7.012036 2.342453 -1.888943 73.253943 7.548693 23.735582 179.612270 77.717296 -179.999567 0.599467 8.215297 0.050426 -0.048036 -0.566945 -0.000000 0.000000 0.000000 0.000000 0.000000 0.000000 0.000000 
-5.693627 16.305716 -0.762605 5.828368 78.595150 37.338093 -7.953705 1.591051 6.905919 -1.993651 2.144763 -1.981632 -3.727340 2.171904 -1.149647 3.988858 -5.342278 -6.811311 -0.641705 -0.037759 -0.115848 0.000000 0.000000 0.000000 -2.041487 20.959228 1.603541 -67.758081 33.209459 13.604101 -179.474321 -77.701479 179.990780 3.640454 -0.237565 -0.012710 -0.091724 0.191760 0.000000 0.000000 0.000000 0.000000 0.000000 0.000000 0.000000 -6.271794 2.634023 -1.794535 73.930655 6.547129 22.779764 179.648081 78.596371 -179.999356 0.706936 8.297592 0.059637 -0.053345 -0.564864 -0.000000 0.000000 0.000000 0.000000 0.000000 0.000000 0.000000 
-5.478370 16.185166 -0.750480 5.856032 78.482990 37.312730 -8.130383 1.474244 7.106484 -2.034330 2.031137 -1.949025 -3.821932 2.062009 -1.214574 4.159624 -5.106065 -7.004688 -0.798106 -0.045321 -0.182968 0.000000 0.000000 0.000000 -2.669701 20.881315 1.694846 -68.261428 30.886852 12.659889 -179.471133 -77.759530 179.987648 4.367864 0.051678 -0.004264 -0.109830 0.198592 0.000000 0.000000 0.000000 0.000000 0.000000 0.000000 0.000000 -5.488274 2.937482 -1.691077 74.670806 5.498342 21.633694 179.694384 79.658732 179.999688 0.630526 8.317273 0.053956 -0.054624 -0.560679 -0.000000 0.000000 0.000000 0.000000 0.000000 0.000000 0.000000 
-5.267481 16.061669 -0.736106 6.064698 78.379999 37.420164 -8.304781 1.360798 7.362430 -2.076641 1.918785 -1.906573 -3.923355 1.954468 -1.295036 4.314962 -4.853798 -7.173667 -0.965555 -0.054015 -0.245620 0.000000 0.000000 0.000000 -3.318434 20.729871 1.771945 -68.593202 28.344278 11.915055 -179.466322 -77.925221 179.984213 5.054613 0.412719 0.010978 -0.128225 0.204401 0.000000 0.000000 0.000000 0.000000 0.000000 0.000000 0.000000 -4.653695 3.233422 -1.572770 75.463886 4.414302 20.320123 179.750046 80.915940 179.997288 0.321940 8.268375 0.029582 -0.050994 -0.554251 -0.000000 0.000000 0.000000 0.000000 0.000000 0.000000 0.000000 
